<?xml version="1.0" standalone="no"?>
<!DOCTYPE svg PUBLIC "-//W3C//DTD SVG 20010904//EN"
 "http://www.w3.org/TR/2001/REC-SVG-20010904/DTD/svg10.dtd">
<svg version="1.0" xmlns="http://www.w3.org/2000/svg"
 width="1024.000000pt" height="1024.000000pt" viewBox="0 0 1024.000000 1024.000000"
 preserveAspectRatio="xMidYMid meet">

<g transform="translate(0.000000,1024.000000) scale(0.100000,-0.100000)"
fill="#e5484d" stroke="none">
<path d="M0 5120 l0 -5120 5120 0 5120 0 0 5120 0 5120 -5120 0 -5120 0 0
-5120z m9790 531 l0 -4139 -90 -52 c-241 -138 -461 -348 -617 -587 -64 -98
-154 -273 -185 -361 l-23 -62 -4212 0 -4213 0 0 4670 0 4670 4670 0 4670 0 0
-4139z"/>
<path d="M2717 6123 c-2 -2648 -3 -2771 -21 -2838 -61 -234 -185 -361 -403
-412 -132 -31 -475 -22 -570 14 -10 4 -13 -94 -13 -495 l0 -500 28 -6 c160
-32 588 -42 782 -18 195 25 358 65 485 120 416 180 671 524 770 1042 45 237
45 186 45 3103 l0 2757 -550 0 -550 0 -3 -2767z"/>
<path d="M5405 8288 c-4 -11 -49 -283 -126 -758 -31 -193 -106 -655 -139 -855
-16 -99 -46 -279 -65 -400 -20 -121 -49 -301 -65 -400 -17 -98 -30 -187 -30
-197 0 -17 14 -18 185 -18 183 0 186 0 194 23 5 12 19 94 32 182 12 88 27 194
33 235 l11 75 229 3 c126 1 233 -1 238 -6 4 -4 23 -117 42 -250 19 -133 37
-246 41 -252 4 -6 81 -10 206 -10 l199 0 0 22 c0 12 -16 118 -35 235 -19 117
-51 309 -70 426 -45 278 -94 578 -149 917 -25 151 -57 349 -71 440 -14 91 -30
185 -35 210 -5 25 -21 123 -36 218 l-28 172 -278 0 c-214 0 -280 -3 -283 -12z
m354 -1058 c6 -41 19 -136 30 -210 30 -209 62 -433 64 -455 2 -19 -5 -20 -182
-23 l-184 -2 7 62 c4 35 18 140 31 233 13 94 43 303 65 465 62 450 72 514 78
525 5 8 48 -273 91 -595z"/>
<path d="M7190 6980 l0 -1320 203 2 202 3 3 563 2 562 109 0 c166 0 218 -25
262 -123 23 -51 23 -63 30 -477 5 -321 10 -437 21 -475 l14 -50 199 -3 c110
-1 205 0 212 2 10 4 9 15 -4 48 -14 36 -18 110 -23 473 -8 452 -11 489 -60
617 -27 72 -95 149 -161 182 l-50 25 53 34 c136 88 189 197 210 434 14 161 0
373 -32 475 -54 176 -194 295 -389 332 -66 13 -158 16 -442 16 l-359 0 0
-1320z m667 935 c58 -17 103 -61 124 -122 10 -27 14 -97 14 -248 l0 -210 -28
-50 c-50 -90 -107 -114 -269 -115 l-98 0 0 373 c0 206 3 377 7 380 13 13 199
7 250 -8z"/>
<path d="M5085 4768 c-3 -7 -4 -600 -3 -1318 l3 -1305 205 0 205 0 3 563 2
562 110 0 c166 0 222 -28 262 -129 20 -53 22 -77 28 -481 5 -328 10 -435 21
-470 l15 -45 208 -3 208 -2 -6 27 c-21 91 -26 179 -26 453 0 425 -16 569 -76
697 -28 58 -93 121 -156 151 l-42 19 55 35 c72 47 112 91 147 163 51 104 57
148 57 410 0 263 -6 304 -59 415 -62 131 -189 220 -358 254 -102 21 -796 24
-803 4z m672 -373 c58 -17 103 -61 124 -122 10 -27 14 -95 14 -238 0 -224 -6
-254 -62 -316 -46 -51 -107 -69 -235 -69 l-98 0 0 380 0 380 103 0 c63 0 123
-6 154 -15z"/>
<path d="M7195 4768 c-3 -7 -4 -600 -3 -1318 l3 -1305 205 0 205 0 3 563 2
562 113 0 c97 0 119 -3 164 -24 56 -26 73 -47 99 -116 15 -38 18 -107 24 -470
5 -328 10 -435 21 -470 l15 -45 208 -3 209 -2 -8 32 c-21 92 -24 146 -25 418
-1 445 -17 599 -72 716 -28 62 -84 119 -147 153 l-53 29 56 36 c93 63 142 132
182 261 17 52 19 92 18 315 0 251 -1 256 -27 333 -65 188 -185 290 -389 331
-102 21 -796 24 -803 4z m670 -372 c62 -19 100 -57 122 -120 15 -42 18 -85 18
-246 0 -227 -9 -267 -76 -324 -51 -43 -103 -56 -223 -56 l-96 0 0 380 0 380
103 0 c62 0 123 -6 152 -14z"/>
</g>
</svg>
